<?xml version="1.0" encoding="UTF-8"?>
<svg xmlns="http://www.w3.org/2000/svg" viewBox="0 0 32 32">
    <path d="M 16 6 C 13.35207 6 11.051929 7.2374781 9.40625 9.0625 C 9.2703551 9.0463006 9.1477293 9 9 9 C 6.8026661 9 5 10.802666 5 13 C 3.2703261 14.054754 2 15.834851 2 18 C 2 21.301625 4.6983746 24 8 24 L 13 24 L 13 22 L 8 22 C 5.7796254 22 4 20.220375 4 18 C 4 16.338324 5.0091817 14.922353 6.4375 14.3125 L 7.125 14.03125 L 7.03125 13.28125 C 7.0103607 13.119051 7 13.025078 7 13 C 7 11.883334 7.8833339 11 9 11 C 9.14 11 9.2952692 11.02145 9.46875 11.0625 L 10.09375 11.21875 L 10.46875 10.71875 C 11.751887 9.0736352 13.75001 8 16 8 C 19.27847 8 22.011594 10.253351 22.78125 13.28125 L 22.96875 14.0625 L 23.8125 14.03125 C 24.02413 14.019087 24.071091 14 24 14 C 26.220375 14 28 15.779625 28 18 C 28 20.220375 26.220375 22 24 22 L 19 22 L 19 24 L 24 24 C 27.301625 24 30 21.301625 30 18 C 30 14.842292 27.509852 12.314931 24.40625 12.09375 C 23.183479 8.5733113 19.926695 6 16 6 z M 15 18 L 15 26 L 12 26 L 16 30 L 20 26 L 17 26 L 17 18 L 15 18 z" fill="white" />
</svg>