<?xml version="1.0" standalone="no"?><!DOCTYPE svg PUBLIC "-//W3C//DTD SVG 1.1//EN" "http://www.w3.org/Graphics/SVG/1.1/DTD/svg11.dtd"><svg class="icon" height="512" viewBox="0 0 1024 1024" version="1.1" xmlns="http://www.w3.org/2000/svg"><path d="M510.717286 1019.34191c-281.491069 0-509.673002-228.207515-509.673002-509.670955S229.22724 0 510.717286 0c281.492092 0 509.670955 228.207515 509.670955 509.670955S792.209378 1019.34191 510.717286 1019.34191z m0-83.216283c235.524155 0 426.451602-190.932564 426.451601-426.454672 0-235.526201-190.927447-426.453648-426.451601-426.453648-235.523131 0-426.453648 190.927447-426.453649 426.453648 0 235.522108 190.930517 426.454672 426.453649 426.454672zM765.329171 320.03492L469.530235 614.892415 359.480816 503.696894c-15.950274-15.925714-43.476187-15.925714-59.402925 0-15.924691 15.928784-15.924691 43.451628 0 59.427484l139.039683 140.113131c8.6848 8.709359 18.814508 11.598152 30.412661 11.598152 11.597129 0 21.726837-4.333702 30.410613-11.598152L826.177004 377.971447c15.926738-15.926738 15.926738-43.452651 0-59.377342-18.84009-14.483876-44.922119-14.483876-60.847833 1.440815z" fill="white" /></svg>