<?xml version="1.0" standalone="no"?><!DOCTYPE svg PUBLIC "-//W3C//DTD SVG 1.1//EN" "http://www.w3.org/Graphics/SVG/1.1/DTD/svg11.dtd"><svg class="icon" height="512" viewBox="0 0 1024 1024" version="1.1" xmlns="http://www.w3.org/2000/svg"><path d="M512 1024C229.21216 1024 0 794.74688 0 512 0 229.21216 229.21216 0 512 0S1024 229.21216 1024 512 794.78784 1024 512 1024z m0-946.5856C271.9744 77.4144 77.4144 271.9744 77.4144 512c0 240.0256 194.56 434.5856 434.5856 434.5856 240.0256 0 434.5856-194.56 434.5856-434.5856 0-240.0256-194.56-434.5856-434.5856-434.5856z m45.4656 434.74944l135.5776 135.5776a31.9488 31.9488 0 1 1-45.2608 45.2608l-135.5776-135.5776-136.51968 136.51968a32.23552 32.23552 0 1 1-45.62944-45.58848l136.51968-136.51968-135.5776-135.5776A31.98976 31.98976 0 1 1 376.2176 330.9568l135.5776 135.5776 137.54368-137.50272a32.27648 32.27648 0 0 1 45.58848 45.62944l-137.50272 137.50272z" fill="white" /></svg>