<?xml version="1.0"?>
<svg xmlns="http://www.w3.org/2000/svg" viewBox="0 0 32 32">
    <path style="line-height:normal;text-indent:0;text-align:start;text-decoration-line:none;text-decoration-style:solid;text-decoration-color:#000;text-transform:none;block-progression:tb;isolation:auto;mix-blend-mode:normal" d="M 3.7070312 2.2929688 L 2.2929688 3.7070312 L 18 19.416016 L 18 25.777344 C 17.351958 25.909541 16.688865 26 16 26 C 10.465466 26 6 21.534534 6 16 C 6 14.383 6.402625 12.800812 7.140625 11.382812 L 5.6660156 9.9082031 C 4.5850156 11.743203 4 13.848 4 16 C 4 22.615466 9.3845336 28 16 28 C 16.681394 28 17.34839 27.93747 18 27.828125 L 18 32 L 32 32 L 32 18 L 19.416016 18 L 9.6757812 8.2617188 C 11.399553 6.8501631 13.593319 6 16 6 C 19.273829 6 22.157659 7.5778355 23.980469 10 L 20 10 L 20 12 L 27 12 L 27 5 L 25 5 L 25 8.0722656 C 22.799216 5.5771452 19.580925 4 16 4 C 13.052286 4 10.350451 5.0768917 8.2597656 6.8457031 L 3.7070312 2.2929688 z M 20 20 L 30 20 L 30 30 L 20 30 L 20 20 z M 22.699219 21.300781 L 21.300781 22.699219 L 23.599609 25 L 21.300781 27.300781 L 22.699219 28.699219 L 25 26.400391 L 27.300781 28.699219 L 28.699219 27.300781 L 26.400391 25 L 28.699219 22.699219 L 27.300781 21.300781 L 25 23.599609 L 22.699219 21.300781 z" font-weight="400" font-family="sans-serif" white-space="normal" overflow="visible"/>
</svg>
