<?xml version="1.0"?>
<svg xmlns="http://www.w3.org/2000/svg" viewBox="0 0 32 32">
    <path style="line-height:normal;text-indent:0;text-align:start;text-decoration-line:none;text-decoration-style:solid;text-decoration-color:#000;text-transform:none;block-progression:tb;isolation:auto;mix-blend-mode:normal" d="M 16 4 C 9.3845336 4 4 9.3845336 4 16 C 4 22.615466 9.3845336 28 16 28 C 16.681394 28 17.34839 27.93747 18 27.828125 L 18 32 L 32 32 L 32 18 L 18 18 L 18 19 L 18 25.777344 C 17.351958 25.909541 16.688865 26 16 26 C 10.465466 26 6 21.534534 6 16 C 6 10.465466 10.465466 6 16 6 C 19.273829 6 22.157659 7.5778355 23.980469 10 L 20 10 L 20 12 L 27 12 L 27 5 L 25 5 L 25 8.0722656 C 22.799216 5.5771452 19.580925 4 16 4 z M 20 20 L 30 20 L 30 30 L 20 30 L 20 20 z M 28 21.900391 L 24.699219 25.199219 L 22.400391 22.900391 L 21 24.300781 L 24.699219 28 L 29.400391 23.300781 L 28 21.900391 z" font-weight="400" font-family="sans-serif" white-space="normal" overflow="visible" fill="white" />
</svg>
